<mxfile host="65bd71144e">
    <diagram id="6fMVmgd4E3_qC6jf4KLQ" name="Full Arc">
        <mxGraphModel dx="1901" dy="903" grid="0" gridSize="10" guides="1" tooltips="1" connect="1" arrows="1" fold="1" page="1" pageScale="1" pageWidth="850" pageHeight="1100" math="0" shadow="0">
            <root>
                <mxCell id="0"/>
                <mxCell id="1" parent="0"/>
                <mxCell id="6" value="&lt;font style=&quot;font-size: 15px&quot;&gt;&lt;font style=&quot;font-size: 15px&quot;&gt;Service Name =&amp;nbsp;&lt;span style=&quot;color: rgb(152 , 195 , 121) ; background-color: rgb(40 , 44 , 52) ; font-family: &amp;#34;consolas&amp;#34; , &amp;#34;courier new&amp;#34; , monospace&quot;&gt;search-service-api =&amp;nbsp;&lt;/span&gt;&lt;/font&gt;&lt;font style=&quot;font-size: 15px&quot;&gt;&lt;span style=&quot;color: rgb(152 , 195 , 121) ; background-color: rgb(40 , 44 , 52) ; font-family: &amp;#34;consolas&amp;#34; , &amp;#34;courier new&amp;#34; , monospace&quot;&gt;=&amp;nbsp;&lt;/span&gt;&lt;/font&gt;&lt;span style=&quot;color: rgb(152 , 195 , 121) ; background-color: rgb(40 , 44 , 52) ; font-family: &amp;#34;consolas&amp;#34; , &amp;#34;courier new&amp;#34; , monospace&quot;&gt;${self:service}&lt;/span&gt;&lt;/font&gt;" style="text;html=1;align=center;verticalAlign=middle;resizable=0;points=[];autosize=1;strokeColor=none;fillColor=none;strokeWidth=3;" parent="1" vertex="1">
                    <mxGeometry x="30" y="60" width="440" height="20" as="geometry"/>
                </mxCell>
                <mxCell id="7" value="&lt;font style=&quot;font-size: 16px&quot;&gt;&lt;font style=&quot;font-size: 16px&quot;&gt;&lt;font style=&quot;font-size: 16px&quot;&gt;Serverless Framework App Name =&amp;nbsp;&lt;/font&gt;&lt;span style=&quot;color: rgb(152 , 195 , 121) ; background-color: rgb(40 , 44 , 52) ; font-family: &amp;#34;consolas&amp;#34; , &amp;#34;courier new&amp;#34; , monospace&quot;&gt;&lt;font style=&quot;font-size: 16px&quot;&gt;carxparts =&amp;nbsp;&lt;/font&gt;&lt;/span&gt;&lt;/font&gt;&lt;span style=&quot;color: rgb(152 , 195 , 121) ; background-color: rgb(40 , 44 , 52) ; font-family: &amp;#34;consolas&amp;#34; , &amp;#34;courier new&amp;#34; , monospace&quot;&gt;${self:app}&lt;/span&gt;&lt;/font&gt;" style="text;html=1;align=center;verticalAlign=middle;resizable=0;points=[];autosize=1;strokeColor=none;fillColor=none;strokeWidth=3;" parent="1" vertex="1">
                    <mxGeometry x="20" y="30" width="480" height="20" as="geometry"/>
                </mxCell>
                <mxCell id="8" value="&lt;div style=&quot;color: rgb(171 , 178 , 191) ; background-color: rgb(40 , 44 , 52) ; font-family: &amp;#34;consolas&amp;#34; , &amp;#34;courier new&amp;#34; , monospace ; font-size: 14px ; line-height: 19px&quot;&gt;&lt;div style=&quot;font-family: &amp;#34;consolas&amp;#34; , &amp;#34;courier new&amp;#34; , monospace ; line-height: 19px&quot;&gt;&lt;div style=&quot;font-family: &amp;#34;consolas&amp;#34; , &amp;#34;courier new&amp;#34; , monospace ; line-height: 19px&quot;&gt;&lt;span style=&quot;color: #98c379&quot;&gt;${self:app}__${self:service}__TestPython__${sls:stage}&lt;/span&gt;&lt;/div&gt;&lt;/div&gt;&lt;/div&gt;" style="text;html=1;align=center;verticalAlign=middle;resizable=0;points=[];autosize=1;strokeColor=none;fillColor=none;fontSize=15;" parent="1" vertex="1">
                    <mxGeometry x="-32" y="180" width="430" height="20" as="geometry"/>
                </mxCell>
                <mxCell id="18" style="edgeStyle=none;html=1;fontSize=15;" parent="1" source="3" target="8" edge="1">
                    <mxGeometry relative="1" as="geometry"/>
                </mxCell>
                <mxCell id="23" style="edgeStyle=none;html=1;fontSize=15;" parent="1" source="3" target="22" edge="1">
                    <mxGeometry relative="1" as="geometry"/>
                </mxCell>
                <mxCell id="30" style="edgeStyle=none;html=1;" parent="1" source="3" target="29" edge="1">
                    <mxGeometry relative="1" as="geometry"/>
                </mxCell>
                <mxCell id="3" value="" style="sketch=0;points=[[0,0,0],[0.25,0,0],[0.5,0,0],[0.75,0,0],[1,0,0],[0,1,0],[0.25,1,0],[0.5,1,0],[0.75,1,0],[1,1,0],[0,0.25,0],[0,0.5,0],[0,0.75,0],[1,0.25,0],[1,0.5,0],[1,0.75,0]];outlineConnect=0;fontColor=#232F3E;gradientColor=#F78E04;gradientDirection=north;fillColor=#D05C17;strokeColor=#ffffff;dashed=0;verticalLabelPosition=bottom;verticalAlign=top;align=center;html=1;fontSize=12;fontStyle=0;aspect=fixed;shape=mxgraph.aws4.resourceIcon;resIcon=mxgraph.aws4.lambda;" parent="1" vertex="1">
                    <mxGeometry x="160" y="320" width="78" height="78" as="geometry"/>
                </mxCell>
                <mxCell id="34" style="edgeStyle=none;html=1;entryX=1;entryY=0;entryDx=0;entryDy=0;entryPerimeter=0;" parent="1" source="43" target="32" edge="1">
                    <mxGeometry relative="1" as="geometry">
                        <mxPoint x="541.1815742397139" y="401" as="sourcePoint"/>
                    </mxGeometry>
                </mxCell>
                <mxCell id="4" style="edgeStyle=none;html=1;entryX=1;entryY=0.5;entryDx=0;entryDy=0;entryPerimeter=0;startArrow=none;" parent="1" source="66" target="3" edge="1">
                    <mxGeometry relative="1" as="geometry">
                        <mxPoint x="530" y="360.34458940905597" as="sourcePoint"/>
                    </mxGeometry>
                </mxCell>
                <mxCell id="12" value="Lambda Name" style="text;html=1;align=center;verticalAlign=middle;resizable=0;points=[];autosize=1;strokeColor=none;fillColor=none;fontSize=15;" parent="1" vertex="1">
                    <mxGeometry x="144" y="240" width="110" height="20" as="geometry"/>
                </mxCell>
                <mxCell id="22" value="&lt;font face=&quot;Courier New&quot;&gt;test-service-api\functions\TestPython\handler.py&lt;/font&gt;" style="text;html=1;align=center;verticalAlign=middle;resizable=0;points=[];autosize=1;fontSize=15;" parent="1" vertex="1">
                    <mxGeometry x="-75" y="530" width="450" height="20" as="geometry"/>
                </mxCell>
                <mxCell id="24" value="Lambda Function Location" style="text;html=1;align=center;verticalAlign=middle;resizable=0;points=[];autosize=1;strokeColor=none;fillColor=none;fontSize=15;" parent="1" vertex="1">
                    <mxGeometry x="75" y="465" width="190" height="20" as="geometry"/>
                </mxCell>
                <mxCell id="29" value="python3.9" style="text;html=1;align=center;verticalAlign=middle;resizable=0;points=[];autosize=1;strokeColor=none;fillColor=none;" parent="1" vertex="1">
                    <mxGeometry x="-120" y="260" width="70" height="20" as="geometry"/>
                </mxCell>
                <mxCell id="31" value="Programming Language" style="text;html=1;align=center;verticalAlign=middle;resizable=0;points=[];autosize=1;strokeColor=none;fillColor=none;fontSize=15;" parent="1" vertex="1">
                    <mxGeometry x="-42" y="310" width="180" height="20" as="geometry"/>
                </mxCell>
                <mxCell id="38" style="edgeStyle=none;html=1;fontFamily=Courier New;" parent="1" source="32" target="36" edge="1">
                    <mxGeometry relative="1" as="geometry"/>
                </mxCell>
                <mxCell id="39" style="edgeStyle=none;html=1;fontFamily=Courier New;" parent="1" source="32" target="35" edge="1">
                    <mxGeometry relative="1" as="geometry"/>
                </mxCell>
                <mxCell id="41" style="edgeStyle=none;html=1;fontFamily=Courier New;" parent="1" source="32" target="40" edge="1">
                    <mxGeometry relative="1" as="geometry">
                        <Array as="points">
                            <mxPoint x="160" y="679"/>
                        </Array>
                    </mxGeometry>
                </mxCell>
                <mxCell id="32" value="" style="sketch=0;points=[[0,0,0],[0.25,0,0],[0.5,0,0],[0.75,0,0],[1,0,0],[0,1,0],[0.25,1,0],[0.5,1,0],[0.75,1,0],[1,1,0],[0,0.25,0],[0,0.5,0],[0,0.75,0],[1,0.25,0],[1,0.5,0],[1,0.75,0]];outlineConnect=0;fontColor=#232F3E;gradientColor=#F78E04;gradientDirection=north;fillColor=#D05C17;strokeColor=#ffffff;dashed=0;verticalLabelPosition=bottom;verticalAlign=top;align=center;html=1;fontSize=12;fontStyle=0;aspect=fixed;shape=mxgraph.aws4.resourceIcon;resIcon=mxgraph.aws4.lambda;" parent="1" vertex="1">
                    <mxGeometry x="330" y="640" width="78" height="78" as="geometry"/>
                </mxCell>
                <mxCell id="35" value="&lt;font face=&quot;Courier New&quot;&gt;test-service-api\functions\TestJs\handler.js&lt;/font&gt;" style="text;whiteSpace=wrap;html=1;" parent="1" vertex="1">
                    <mxGeometry x="254" y="790" width="352" height="30" as="geometry"/>
                </mxCell>
                <mxCell id="36" value="&lt;div style=&quot;color: rgb(171 , 178 , 191) ; background-color: rgb(40 , 44 , 52) ; font-family: &amp;#34;consolas&amp;#34; , &amp;#34;courier new&amp;#34; , monospace ; font-size: 14px ; line-height: 19px&quot;&gt;&lt;span style=&quot;color: #98c379&quot;&gt;nodejs14.x&lt;/span&gt;&lt;/div&gt;" style="text;html=1;align=center;verticalAlign=middle;resizable=0;points=[];autosize=1;strokeColor=none;fillColor=none;" parent="1" vertex="1">
                    <mxGeometry x="480" y="690" width="90" height="20" as="geometry"/>
                </mxCell>
                <mxCell id="40" value="&lt;div style=&quot;color: rgb(171 , 178 , 191) ; background-color: rgb(40 , 44 , 52) ; font-family: &amp;#34;consolas&amp;#34; , &amp;#34;courier new&amp;#34; , monospace ; font-size: 14px ; line-height: 19px&quot;&gt;&lt;div style=&quot;font-family: &amp;#34;consolas&amp;#34; , &amp;#34;courier new&amp;#34; , monospace ; line-height: 19px&quot;&gt;&lt;div style=&quot;font-family: &amp;#34;consolas&amp;#34; , &amp;#34;courier new&amp;#34; , monospace ; line-height: 19px&quot;&gt;&lt;div style=&quot;font-family: &amp;#34;consolas&amp;#34; , &amp;#34;courier new&amp;#34; , monospace ; line-height: 19px&quot;&gt;&lt;span style=&quot;color: #98c379&quot;&gt;${self:app}__${self:service}__TestJs__${sls:stage}&lt;/span&gt;&lt;/div&gt;&lt;/div&gt;&lt;/div&gt;&lt;/div&gt;" style="text;html=1;align=center;verticalAlign=middle;resizable=0;points=[];autosize=1;strokeColor=none;fillColor=none;fontSize=15;" parent="1" vertex="1">
                    <mxGeometry x="-178" y="717" width="394" height="22" as="geometry"/>
                </mxCell>
                <mxCell id="42" value="Lambda Name" style="text;html=1;align=center;verticalAlign=middle;resizable=0;points=[];autosize=1;strokeColor=none;fillColor=none;fontSize=15;" parent="1" vertex="1">
                    <mxGeometry x="160" y="680" width="110" height="20" as="geometry"/>
                </mxCell>
                <mxCell id="47" style="edgeStyle=none;html=1;fontSize=16;" edge="1" parent="1" source="43" target="46">
                    <mxGeometry relative="1" as="geometry"/>
                </mxCell>
                <mxCell id="53" style="edgeStyle=none;html=1;fontSize=16;" edge="1" parent="1" source="43" target="51">
                    <mxGeometry relative="1" as="geometry"/>
                </mxCell>
                <mxCell id="43" value="" style="outlineConnect=0;dashed=0;verticalLabelPosition=bottom;verticalAlign=top;align=center;html=1;shape=mxgraph.aws3.api_gateway;fillColor=#D9A741;gradientColor=none;fontSize=16;" vertex="1" parent="1">
                    <mxGeometry x="548" y="318" width="76.5" height="93" as="geometry"/>
                </mxCell>
                <mxCell id="46" value="&lt;div style=&quot;color: rgb(171 , 178 , 191) ; background-color: rgb(40 , 44 , 52) ; font-family: &amp;#34;consolas&amp;#34; , &amp;#34;courier new&amp;#34; , monospace ; font-size: 14px ; line-height: 19px&quot;&gt;&lt;span style=&quot;color: #98c379&quot;&gt;${self:app}__${self:service}__rest_api_gateway__${sls:stage}&lt;/span&gt;&lt;/div&gt;" style="text;html=1;align=center;verticalAlign=middle;resizable=0;points=[];autosize=1;strokeColor=none;fillColor=none;fontSize=16;" vertex="1" parent="1">
                    <mxGeometry x="597" y="485" width="471" height="22" as="geometry"/>
                </mxCell>
                <mxCell id="48" value="Api Gateway name" style="text;html=1;align=center;verticalAlign=middle;resizable=0;points=[];autosize=1;strokeColor=none;fillColor=none;fontSize=16;" vertex="1" parent="1">
                    <mxGeometry x="649" y="420" width="144" height="22" as="geometry"/>
                </mxCell>
                <mxCell id="54" value="" style="group" vertex="1" connectable="0" parent="1">
                    <mxGeometry x="733" y="127" width="241" height="151" as="geometry"/>
                </mxCell>
                <mxCell id="51" value="" style="rounded=0;whiteSpace=wrap;html=1;fontSize=16;" vertex="1" parent="54">
                    <mxGeometry width="241" height="151" as="geometry"/>
                </mxCell>
                <mxCell id="44" value="&lt;div style=&quot;color: rgb(171, 178, 191); background-color: rgb(40, 44, 52); font-family: consolas, &amp;quot;courier new&amp;quot;, monospace; font-weight: normal; font-size: 14px; line-height: 19px;&quot;&gt;&lt;div&gt;&lt;span style=&quot;color: #98c379&quot;&gt;/v1/TestPython&lt;/span&gt;&lt;/div&gt;&lt;/div&gt;" style="text;whiteSpace=wrap;html=1;fontSize=16;" vertex="1" parent="54">
                    <mxGeometry x="25.002496948242197" y="42.00003662109373" width="127" height="32" as="geometry"/>
                </mxCell>
                <mxCell id="45" value="&lt;div style=&quot;color: rgb(171, 178, 191); background-color: rgb(40, 44, 52); font-family: consolas, &amp;quot;courier new&amp;quot;, monospace; font-weight: normal; font-size: 14px; line-height: 19px;&quot;&gt;&lt;div&gt;&lt;span style=&quot;color: #98c379&quot;&gt;/v1/TestJs&lt;/span&gt;&lt;/div&gt;&lt;/div&gt;" style="text;whiteSpace=wrap;html=1;fontSize=16;" vertex="1" parent="54">
                    <mxGeometry x="29" y="15" width="97" height="30" as="geometry"/>
                </mxCell>
                <mxCell id="55" value="Api Gateway url" style="text;html=1;align=center;verticalAlign=middle;resizable=0;points=[];autosize=1;strokeColor=none;fillColor=none;fontSize=16;" vertex="1" parent="1">
                    <mxGeometry x="627" y="298" width="123" height="22" as="geometry"/>
                </mxCell>
                <mxCell id="60" value="&lt;span style=&quot;color: rgb(152, 195, 121); font-family: consolas, &amp;quot;courier new&amp;quot;, monospace; font-size: 14px; font-style: normal; font-weight: 400; letter-spacing: normal; text-align: left; text-indent: 0px; text-transform: none; word-spacing: 0px; background-color: rgb(40, 44, 52); display: inline; float: none;&quot;&gt;/v1/TestJs&lt;/span&gt;" style="text;whiteSpace=wrap;html=1;fontSize=16;" vertex="1" parent="1">
                    <mxGeometry x="453.0024969482422" y="504.0000244140625" width="97" height="33" as="geometry"/>
                </mxCell>
                <mxCell id="66" value="&lt;span style=&quot;color: rgb(152, 195, 121); font-family: consolas, &amp;quot;courier new&amp;quot;, monospace; font-size: 14px; font-style: normal; font-weight: 400; letter-spacing: normal; text-align: left; text-indent: 0px; text-transform: none; word-spacing: 0px; background-color: rgb(40, 44, 52); display: inline; float: none;&quot;&gt;/v1/TestPython&lt;/span&gt;" style="text;whiteSpace=wrap;html=1;fontSize=16;" vertex="1" parent="1">
                    <mxGeometry x="320.0024969482422" y="339.0000244140625" width="127" height="33" as="geometry"/>
                </mxCell>
                <mxCell id="67" value="" style="edgeStyle=none;html=1;entryX=1;entryY=0.5;entryDx=0;entryDy=0;entryPerimeter=0;endArrow=none;" edge="1" parent="1" source="43" target="66">
                    <mxGeometry relative="1" as="geometry">
                        <mxPoint x="548" y="363.89590811198855" as="sourcePoint"/>
                        <mxPoint x="238" y="359" as="targetPoint"/>
                    </mxGeometry>
                </mxCell>
            </root>
        </mxGraphModel>
    </diagram>
</mxfile>